<svg width="24" height="24" viewBox="0 0 24 24" fill="none" xmlns="http://www.w3.org/2000/svg">
<g id="Frame" clip-path="url(#clip0_33_219)">
<path id="Vector" d="M4 19C4 19.5304 4.21071 20.0391 4.58579 20.4142C4.96086 20.7893 5.46957 21 6 21C6.53043 21 7.03914 20.7893 7.41421 20.4142C7.78929 20.0391 8 19.5304 8 19C8 18.4696 7.78929 17.9609 7.41421 17.5858C7.03914 17.2107 6.53043 17 6 17C5.46957 17 4.96086 17.2107 4.58579 17.5858C4.21071 17.9609 4 18.4696 4 19Z" stroke="#89898B" stroke-width="1.5" stroke-linecap="round" stroke-linejoin="round"/>
<path id="Vector_2" d="M12 17H6V3H4" stroke="#89898B" stroke-width="1.5" stroke-linecap="round" stroke-linejoin="round"/>
<path id="Vector_3" d="M6 5L20 6L19.284 11.011M14 13H6" stroke="#89898B" stroke-width="1.5" stroke-linecap="round" stroke-linejoin="round"/>
<path id="Vector_4" d="M21.121 20.121C21.5406 19.7015 21.8265 19.1669 21.9423 18.585C22.0581 18.003 21.9988 17.3997 21.7717 16.8515C21.5447 16.3033 21.1602 15.8347 20.6668 15.505C20.1734 15.1753 19.5934 14.9994 19 14.9994C18.4066 14.9994 17.8266 15.1753 17.3332 15.505C16.8398 15.8347 16.4553 16.3033 16.2283 16.8515C16.0012 17.3997 15.9419 18.003 16.0577 18.585C16.1735 19.1669 16.4594 19.7015 16.879 20.121C17.297 20.54 18.004 21.166 19 22C20.051 21.11 20.759 20.484 21.121 20.121Z" stroke="#89898B" stroke-width="1.5" stroke-linecap="round" stroke-linejoin="round"/>
<path id="Vector_5" d="M19 18V18.01" stroke="#89898B" stroke-width="1.5" stroke-linecap="round" stroke-linejoin="round"/>
</g>
<defs>
<clipPath id="clip0_33_219">
<rect width="24" height="24" fill="white"/>
</clipPath>
</defs>
</svg>
