<svg width="24" height="24" viewBox="0 0 24 24" fill="none" xmlns="http://www.w3.org/2000/svg">
<g id="Frame" clip-path="url(#clip0_33_202)">
<path id="Vector" d="M19.5001 12.5715L12.0001 19.9995L4.50006 12.5715C4.00536 12.0901 3.6157 11.5115 3.3556 10.8721C3.09551 10.2328 2.97062 9.54646 2.98879 8.85644C3.00697 8.16642 3.16782 7.48764 3.46121 6.86284C3.75461 6.23804 4.17419 5.68076 4.69354 5.22609C5.21289 4.77141 5.82076 4.42919 6.47887 4.22099C7.13697 4.01278 7.83106 3.94309 8.51743 4.01631C9.20379 4.08952 9.86756 4.30406 10.4669 4.64641C11.0663 4.98876 11.5883 5.45151 12.0001 6.00551C12.4136 5.45553 12.9362 4.99683 13.5352 4.65811C14.1341 4.31939 14.7966 4.10795 15.481 4.03703C16.1654 3.9661 16.8571 4.0372 17.5128 4.2459C18.1685 4.45459 18.7741 4.79638 19.2916 5.24987C19.8091 5.70336 20.2275 6.25879 20.5205 6.8814C20.8135 7.50401 20.9748 8.18039 20.9944 8.86821C21.0139 9.55604 20.8913 10.2405 20.6342 10.8788C20.3771 11.517 19.991 12.0953 19.5001 12.5775" stroke="#131318" stroke-opacity="0.5" stroke-width="1.5" stroke-linecap="round" stroke-linejoin="round"/>
</g>
<defs>
<clipPath id="clip0_33_202">
<rect width="24" height="24" fill="white" transform="translate(0 -0.000488281)"/>
</clipPath>
</defs>
</svg>
