<svg width="24" height="24" viewBox="0 0 24 24" fill="none" xmlns="http://www.w3.org/2000/svg">
<g id="Frame" clip-path="url(#clip0_33_196)">
<path id="Vector" d="M10 11.9995C10 12.5299 10.2107 13.0387 10.5858 13.4137C10.9609 13.7888 11.4696 13.9995 12 13.9995C12.5304 13.9995 13.0391 13.7888 13.4142 13.4137C13.7893 13.0387 14 12.5299 14 11.9995C14 11.4691 13.7893 10.9604 13.4142 10.5853C13.0391 10.2102 12.5304 9.99951 12 9.99951C11.4696 9.99951 10.9609 10.2102 10.5858 10.5853C10.2107 10.9604 10 11.4691 10 11.9995Z" stroke="#131318" stroke-opacity="0.5" stroke-width="1.5" stroke-linecap="round" stroke-linejoin="round"/>
<path id="Vector_2" d="M21 11.9995C18.6 15.9995 15.6 17.9995 12 17.9995C8.4 17.9995 5.4 15.9995 3 11.9995C5.4 7.99951 8.4 5.99951 12 5.99951C15.6 5.99951 18.6 7.99951 21 11.9995Z" stroke="#131318" stroke-opacity="0.5" stroke-width="1.5" stroke-linecap="round" stroke-linejoin="round"/>
</g>
<defs>
<clipPath id="clip0_33_196">
<rect width="24" height="24" fill="white" transform="translate(0 -0.000488281)"/>
</clipPath>
</defs>
</svg>
